<svg viewBox="0 0 20 20" fill="none" xmlns="http://www.w3.org/2000/svg">
<path d="M7.50033 15.8334C7.50033 16.2754 7.67592 16.6994 7.98848 17.0119C8.30104 17.3245 8.72497 17.5001 9.16699 17.5001H10.8337C11.2757 17.5001 11.6996 17.3245 12.0122 17.0119C12.3247 16.6994 12.5003 16.2754 12.5003 15.8334M5.00033 6.66675C5.00033 5.34067 5.52711 4.0689 6.46479 3.13122C7.40247 2.19354 8.67424 1.66675 10.0003 1.66675C11.3264 1.66675 12.5982 2.19354 13.5359 3.13122C14.4735 4.0689 15.0003 5.34067 15.0003 6.66675C15.0003 9.21925 15.535 10.6251 16.0092 11.4167C16.1906 11.7196 16.2848 11.8711 16.2857 11.9167C16.2866 11.9669 16.2773 11.9936 16.2475 12.0335C16.2204 12.0697 16.1639 12.1267 16.0511 12.2406C15.6914 12.6039 15.4014 12.5001 14.8337 12.5001H5.16697C4.59926 12.5001 4.31032 12.6039 3.95061 12.2406C3.83777 12.1267 3.78135 12.0697 3.75422 12.0335C3.72431 11.9936 3.71513 11.9669 3.71593 11.9167C3.71688 11.8711 3.811 11.7196 4.0015 11.4167C4.47566 10.6251 5.00033 9.21925 5.00033 6.66675Z" stroke="currentColor" stroke-width="1.66667" stroke-linecap="round" stroke-linejoin="round"/>
</svg>
