<svg viewBox="0 0 16 16" fill="none" xmlns="http://www.w3.org/2000/svg">
<path d="M9.33366 1.51379V4.26683C9.33366 4.64019 9.33366 4.82688 9.40632 4.96949C9.47023 5.09493 9.57222 5.19692 9.69766 5.26083C9.84027 5.3335 10.027 5.3335 10.4003 5.3335H13.1533M9.33366 11.3333H5.33366M10.667 8.66659H5.33366M13.3337 6.65899V11.4666C13.3337 12.5867 13.3337 13.1467 13.1157 13.5746C12.9239 13.9509 12.618 14.2569 12.2417 14.4486C11.8138 14.6666 11.2538 14.6666 10.1337 14.6666H5.86699C4.74689 14.6666 4.18683 14.6666 3.75901 14.4486C3.38269 14.2569 3.07673 13.9509 2.88498 13.5746C2.66699 13.1467 2.66699 12.5867 2.66699 11.4666V4.53325C2.66699 3.41315 2.66699 2.85309 2.88498 2.42527C3.07673 2.04895 3.38269 1.74299 3.75901 1.55124C4.18683 1.33325 4.74689 1.33325 5.86699 1.33325H8.00795C8.49711 1.33325 8.74169 1.33325 8.97187 1.38852C9.17595 1.43754 9.37106 1.51836 9.55002 1.62801C9.75188 1.75168 9.92483 1.92463 10.2707 2.27053L12.3967 4.39653C12.7426 4.74243 12.9155 4.91535 13.0392 5.11725C13.1489 5.29619 13.2297 5.49131 13.2787 5.69539C13.3337 5.92557 13.3337 6.17015 13.3337 6.65899Z" stroke="currentColor" stroke-width="1.33333" stroke-linecap="round" stroke-linejoin="round"/>
</svg>
