<svg viewBox="0 0 38 38" fill="none" xmlns="http://www.w3.org/2000/svg">
<path d="M7.65625 0.4375H30.3438C34.3306 0.4375 37.5625 3.66944 37.5625 7.65625V30.3438C37.5625 34.3306 34.3306 37.5625 30.3438 37.5625H7.65625C3.66944 37.5625 0.4375 34.3306 0.4375 30.3438V7.65625C0.4375 3.66944 3.66944 0.4375 7.65625 0.4375Z" fill="currentColor"/>
<path d="M7.65625 0.4375H30.3438C34.3306 0.4375 37.5625 3.66944 37.5625 7.65625V30.3438C37.5625 34.3306 34.3306 37.5625 30.3438 37.5625H7.65625C3.66944 37.5625 0.4375 34.3306 0.4375 30.3438V7.65625C0.4375 3.66944 3.66944 0.4375 7.65625 0.4375Z" stroke="currentColor" stroke-width="0.875"/>
<path d="M26 15.5L20.492 21.008C20.2147 21.2853 20.0761 21.4239 19.9163 21.4758C19.7757 21.5215 19.6243 21.5215 19.4837 21.4758C19.3239 21.4239 19.1853 21.2853 18.908 21.008L16.992 19.092C16.7147 18.8147 16.5761 18.6761 16.4163 18.6242C16.2757 18.5785 16.1243 18.5785 15.9837 18.6242C15.8239 18.6761 15.6853 18.8147 15.408 19.092L12 22.5M26 15.5H21.1M26 15.5V20.4" stroke="currentColor" stroke-width="1.7" stroke-linecap="round" stroke-linejoin="round"/>
</svg>