<svg viewBox="0 0 38 38" fill="none" xmlns="http://www.w3.org/2000/svg">
<path d="M7.65625 0.4375H30.3438C34.3306 0.4375 37.5625 3.66944 37.5625 7.65625V30.3438C37.5625 34.3306 34.3306 37.5625 30.3438 37.5625H7.65625C3.66944 37.5625 0.4375 34.3306 0.4375 30.3438V7.65625C0.4375 3.66944 3.66944 0.4375 7.65625 0.4375Z" fill="currentColor"/>
<path d="M7.65625 0.4375H30.3438C34.3306 0.4375 37.5625 3.66944 37.5625 7.65625V30.3438C37.5625 34.3306 34.3306 37.5625 30.3438 37.5625H7.65625C3.66944 37.5625 0.4375 34.3306 0.4375 30.3438V7.65625C0.4375 3.66944 3.66944 0.4375 7.65625 0.4375Z" stroke="currentColor" stroke-width="0.875"/>
<path d="M26 22.5L20.492 16.992C20.2147 16.7147 20.0761 16.5761 19.9163 16.5242C19.7757 16.4785 19.6243 16.4785 19.4837 16.5242C19.3239 16.5761 19.1853 16.7147 18.908 16.992L16.992 18.908C16.7147 19.1853 16.5761 19.3239 16.4163 19.3758C16.2757 19.4215 16.1243 19.4215 15.9837 19.3758C15.8239 19.3239 15.6853 19.1853 15.408 18.908L12 15.5M26 22.5H21.1M26 22.5V17.6" stroke="currentColor" stroke-width="1.7" stroke-linecap="round" stroke-linejoin="round"/>
</svg>