<svg viewBox="0 0 38 38" fill="none" xmlns="http://www.w3.org/2000/svg">
<path d="M20.3096 10.4132V13.9241C20.3096 14.4002 20.3096 14.6382 20.3981 14.82C20.476 14.98 20.6003 15.11 20.7532 15.1915C20.927 15.2841 21.1545 15.2841 21.6096 15.2841H24.9656M20.3096 22.9341H15.4346M21.9346 19.5341H15.4346M25.1846 16.9741V23.1041C25.1846 24.5322 25.1846 25.2463 24.9189 25.7918C24.6852 26.2716 24.3123 26.6617 23.8537 26.9061C23.3323 27.1841 22.6497 27.1841 21.2846 27.1841H16.0846C14.7194 27.1841 14.0369 27.1841 13.5155 26.9061C13.0568 26.6617 12.6839 26.2716 12.4502 25.7918C12.1846 25.2463 12.1846 24.5322 12.1846 23.1041V14.2641C12.1846 12.8359 12.1846 12.1219 12.4502 11.5764C12.6839 11.0966 13.0568 10.7065 13.5155 10.462C14.0369 10.1841 14.7194 10.1841 16.0846 10.1841H18.6941C19.2903 10.1841 19.5884 10.1841 19.8689 10.2545C20.1177 10.317 20.3554 10.42 20.5735 10.5598C20.8195 10.7175 21.0303 10.9381 21.4519 11.3791L24.0423 14.0891C24.4639 14.5301 24.6746 14.7506 24.8254 15.008C24.959 15.2361 25.0575 15.4848 25.1172 15.745C25.1846 16.0385 25.1846 16.3504 25.1846 16.9741Z" stroke="currentColor" stroke-width="1.7" stroke-linecap="round" stroke-linejoin="round"/>
</svg>