<svg viewBox="0 0 38 38" fill="none" xmlns="http://www.w3.org/2000/svg">
<path d="M18.2096 12.0341H18.6222C21.5171 12.0341 22.9646 12.0341 23.514 12.554C23.989 13.0034 24.1995 13.6655 24.0712 14.3067C23.9229 15.0484 22.7412 15.8843 20.3777 17.556L16.5164 20.2872C14.153 21.9589 12.9713 22.7947 12.8229 23.5365C12.6947 24.1777 12.9052 24.8397 13.3801 25.2892C13.9296 25.8091 15.377 25.8091 18.2719 25.8091H19.1596M14.8846 12.0341C14.8846 13.6081 13.6086 14.8841 12.0346 14.8841C10.4606 14.8841 9.18457 13.6081 9.18457 12.0341C9.18457 10.4601 10.4606 9.18408 12.0346 9.18408C13.6086 9.18408 14.8846 10.4601 14.8846 12.0341ZM28.1846 25.3341C28.1846 26.9081 26.9086 28.1841 25.3346 28.1841C23.7606 28.1841 22.4846 26.9081 22.4846 25.3341C22.4846 23.7601 23.7606 22.4841 25.3346 22.4841C26.9086 22.4841 28.1846 23.7601 28.1846 25.3341Z" stroke="currentColor" stroke-width="1.7" stroke-linecap="round" stroke-linejoin="round"/>
</svg>