<svg viewBox="0 0 38 38" fill="none" xmlns="http://www.w3.org/2000/svg">
<path d="M13 19.7778H24.2569C24.5909 19.7778 24.7579 19.7778 24.8532 19.7023C24.9364 19.6366 24.9895 19.5356 24.9991 19.425C25.01 19.2981 24.9241 19.1439 24.7523 18.8354L23.2891 16.209C23.2242 16.0926 23.1918 16.0344 23.1791 15.9723C23.1679 15.9173 23.1679 15.8604 23.1791 15.8055C23.1918 15.7434 23.2242 15.6852 23.2891 15.5688L24.7523 12.9424C24.9241 12.6339 25.01 12.4797 24.9991 12.3528C24.9895 12.2421 24.9364 12.1412 24.8532 12.0754C24.7579 12 24.5909 12 24.2569 12H13L13 26" stroke="currentColor" stroke-width="1.7" stroke-linecap="round" stroke-linejoin="round"/>
</svg>