<svg viewBox="0 0 38 38" fill="none" xmlns="http://www.w3.org/2000/svg">
<path d="M24.9632 16.6841V14.5241C24.9632 13.18 24.9632 12.5079 24.6918 11.9945C24.4531 11.5429 24.0722 11.1758 23.6038 10.9457C23.0712 10.6841 22.374 10.6841 20.9796 10.6841H15.6682C14.2738 10.6841 13.5766 10.6841 13.044 10.9457C12.5755 11.1758 12.1946 11.5429 11.9559 11.9945C11.6846 12.5079 11.6846 13.18 11.6846 14.5241V22.8441C11.6846 24.1882 11.6846 24.8603 11.9559 25.3737C12.1946 25.8252 12.5755 26.1924 13.044 26.4225C13.5766 26.6841 14.2738 26.6841 15.6682 26.6841H19.9837M22.0585 21.0859C22.2047 20.6852 22.4933 20.3473 22.8732 20.1321C23.2531 19.9168 23.6998 19.8382 24.1341 19.91C24.5684 19.9818 24.9623 20.1994 25.2461 20.5244C25.5299 20.8494 25.6852 21.2607 25.6846 21.6854C25.6846 22.8845 23.8187 23.4841 23.8187 23.4841M23.8428 25.8841H23.8511" stroke="currentColor" stroke-width="1.7" stroke-linecap="round" stroke-linejoin="round"/>
</svg>