<svg viewBox="0 0 38 38" fill="none" xmlns="http://www.w3.org/2000/svg">
<path d="M20.5846 14.6216H22.805C23.0373 14.6216 23.1535 14.6216 23.2628 14.644C23.3598 14.6639 23.4524 14.6968 23.5374 14.7413C23.6333 14.7916 23.7155 14.8618 23.8798 15.0023L27.7394 18.3033C27.9037 18.4438 27.9858 18.5141 28.0446 18.5961C28.0967 18.6688 28.135 18.7481 28.1583 18.831C28.1846 18.9245 28.1846 19.0238 28.1846 19.2226V21.5278C28.1846 21.9064 28.1846 22.0957 28.1123 22.245C28.0158 22.4441 27.8309 22.6023 27.5981 22.6847C27.4235 22.7466 27.2022 22.7466 26.7596 22.7466M22.0096 22.7466H20.5846M20.5846 22.7466V14.7841C20.5846 13.874 20.5846 13.419 20.3775 13.0713C20.1953 12.7656 19.9047 12.517 19.5472 12.3612C19.1407 12.1841 18.6087 12.1841 17.5446 12.1841H12.2246C11.1605 12.1841 10.6284 12.1841 10.222 12.3612C9.86448 12.517 9.57382 12.7656 9.39166 13.0713C9.18457 13.419 9.18457 13.874 9.18457 14.7841V21.1216C9.18457 22.019 10.0352 22.7466 11.0846 22.7466M20.5846 22.7466H16.7846M16.7846 22.7466C16.7846 24.0928 15.5086 25.1841 13.9346 25.1841C12.3606 25.1841 11.0846 24.0928 11.0846 22.7466M16.7846 22.7466C16.7846 21.4004 15.5086 20.3091 13.9346 20.3091C12.3606 20.3091 11.0846 21.4004 11.0846 22.7466M26.7596 23.1528C26.7596 24.2747 25.6962 25.1841 24.3846 25.1841C23.0729 25.1841 22.0096 24.2747 22.0096 23.1528C22.0096 22.031 23.0729 21.1216 24.3846 21.1216C25.6962 21.1216 26.7596 22.031 26.7596 23.1528Z" stroke="currentColor" stroke-width="1.7" stroke-linecap="round" stroke-linejoin="round"/>
</svg>