<svg viewBox="0 0 38 38" fill="none" xmlns="http://www.w3.org/2000/svg">
<path d="M18.6846 16.603V19.9355M18.6846 23.2681H18.6929M17.5378 12.347L10.7261 24.1832C10.3483 24.8397 10.1594 25.1679 10.1873 25.4373C10.2116 25.6723 10.334 25.8859 10.524 26.0248C10.7417 26.1841 11.1188 26.1841 11.8729 26.1841H25.4963C26.2504 26.1841 26.6274 26.1841 26.8452 26.0248C27.0351 25.8859 27.1575 25.6723 27.1819 25.4373C27.2098 25.1679 27.0209 24.8397 26.6431 24.1832L19.8313 12.347C19.4549 11.6929 19.2666 11.3658 19.0211 11.2559C18.8068 11.1601 18.5623 11.1601 18.3481 11.2559C18.1025 11.3658 17.9143 11.6929 17.5378 12.347Z" stroke="currentColor" stroke-width="1.7" stroke-linecap="round" stroke-linejoin="round"/>
</svg>