<svg viewBox="0 0 48 48" fill="none" xmlns="http://www.w3.org/2000/svg">
<path d="M26.7527 20.6314C26.3567 20.2354 26.1587 20.0373 26.0845 19.809C26.0192 19.6082 26.0192 19.3918 26.0845 19.191C26.1587 18.9627 26.3567 18.7646 26.7527 18.3686L29.5911 15.5303C28.8378 15.1896 28.0017 15 27.1213 15C23.8076 15 21.1213 17.6863 21.1213 21C21.1213 21.491 21.1803 21.9683 21.2916 22.4251C21.4107 22.9142 21.4703 23.1588 21.4597 23.3133C21.4487 23.4751 21.4246 23.5612 21.35 23.7051C21.2787 23.8426 21.1422 23.9791 20.8691 24.2522L14.6213 30.5C13.7929 31.3284 13.7929 32.6716 14.6213 33.5C15.4497 34.3284 16.7929 34.3284 17.6213 33.5L23.8691 27.2522C24.1422 26.9791 24.2787 26.8426 24.4162 26.7714C24.5602 26.6968 24.6462 26.6727 24.808 26.6616C24.9625 26.651 25.2071 26.7106 25.6962 26.8297C26.153 26.941 26.6303 27 27.1213 27C30.435 27 33.1213 24.3137 33.1213 21C33.1213 20.1196 32.9317 19.2835 32.5911 18.5303L29.7527 21.3686C29.3567 21.7646 29.1587 21.9627 28.9303 22.0368C28.7295 22.1021 28.5131 22.1021 28.3123 22.0368C28.084 21.9627 27.886 21.7646 27.4899 21.3686L26.7527 20.6314Z" stroke="currentColor" stroke-width="1.7" stroke-linecap="round" stroke-linejoin="round"/>
</svg>