<svg viewBox="0 0 38 38" fill="none" xmlns="http://www.w3.org/2000/svg">
<path d="M26.4997 26.4999H19.833M11.083 26.9166L15.7074 25.138C16.0032 25.0242 16.1511 24.9673 16.2894 24.8931C16.4123 24.8271 16.5295 24.751 16.6397 24.6654C16.7638 24.5692 16.8758 24.4571 17.0999 24.233L26.4997 14.8333C27.4202 13.9128 27.4202 12.4204 26.4997 11.4999C25.5792 10.5795 24.0868 10.5795 23.1664 11.4999L13.7666 20.8997C13.5425 21.1238 13.4304 21.2358 13.3342 21.3599C13.2487 21.4701 13.1725 21.5873 13.1065 21.7102C13.0323 21.8485 12.9754 21.9964 12.8616 22.2922L11.083 26.9166ZM11.083 26.9166L12.7981 22.4574C12.9208 22.1383 12.9822 21.9787 13.0875 21.9057C13.1794 21.8418 13.2933 21.8176 13.4033 21.8386C13.5291 21.8627 13.65 21.9836 13.8917 22.2253L15.7743 24.1079C16.0161 24.3496 16.1369 24.4705 16.161 24.5964C16.182 24.7064 16.1578 24.8202 16.094 24.9122C16.0209 25.0174 15.8613 25.0788 15.5422 25.2015L11.083 26.9166Z" stroke="currentColor" stroke-width="1.7" stroke-linecap="round" stroke-linejoin="round"/>
</svg>