<svg viewBox="0 0 48 48" fill="none" xmlns="http://www.w3.org/2000/svg">
<path d="M24 21.5026V25.5017M24 29.5008H24.0102M22.5834 16.3955L14.1689 30.5989C13.7022 31.3867 13.4688 31.7806 13.5033 32.1039C13.5334 32.3859 13.6846 32.6421 13.9192 32.8088C14.1883 33 14.654 33 15.5855 33H32.4145C33.346 33 33.8117 33 34.0808 32.8088C34.3154 32.6421 34.4666 32.3859 34.4967 32.1039C34.5311 31.7806 34.2978 31.3867 33.8311 30.5989L25.4166 16.3955C24.9516 15.6106 24.719 15.2181 24.4157 15.0862C24.151 14.9713 23.849 14.9713 23.5843 15.0862C23.281 15.2181 23.0484 15.6106 22.5834 16.3955Z" stroke="currentColor" stroke-width="1.7" stroke-linecap="round" stroke-linejoin="round"/>
</svg>