<svg viewBox="0 0 38 38" fill="none" xmlns="http://www.w3.org/2000/svg">
<path d="M22.1111 14.2V13.56C22.1111 12.6639 22.1111 12.2159 21.9416 11.8736C21.7924 11.5726 21.5545 11.3278 21.2618 11.1744C20.929 11 20.4934 11 19.6222 11H18.3778C17.5066 11 17.071 11 16.7382 11.1744C16.4455 11.3278 16.2076 11.5726 16.0584 11.8736C15.8889 12.2159 15.8889 12.6639 15.8889 13.56V14.2M12 14.2H26M24.4444 14.2V23.16C24.4444 24.5041 24.4444 25.1762 24.1901 25.6896C23.9664 26.1412 23.6095 26.5083 23.1704 26.7384C22.6713 27 22.0179 27 20.7111 27H17.2889C15.9821 27 15.3287 27 14.8296 26.7384C14.3905 26.5083 14.0336 26.1412 13.8099 25.6896C13.5556 25.1762 13.5556 24.5041 13.5556 23.16V14.2" stroke="currentColor" stroke-width="1.7" stroke-linecap="round" stroke-linejoin="round"/>
</svg>