<svg viewBox="0 0 38 38" fill="none" xmlns="http://www.w3.org/2000/svg">
<path d="M7.65625 0.4375H30.3438C34.3306 0.4375 37.5625 3.66944 37.5625 7.65625V30.3438C37.5625 34.3306 34.3306 37.5625 30.3438 37.5625H7.65625C3.66944 37.5625 0.4375 34.3306 0.4375 30.3438V7.65625C0.4375 3.66944 3.66944 0.4375 7.65625 0.4375Z" fill="currentColor"/>
<path d="M7.65625 0.4375H30.3438C34.3306 0.4375 37.5625 3.66944 37.5625 7.65625V30.3438C37.5625 34.3306 34.3306 37.5625 30.3438 37.5625H7.65625C3.66944 37.5625 0.4375 34.3306 0.4375 30.3438V7.65625C0.4375 3.66944 3.66944 0.4375 7.65625 0.4375Z" stroke="currentColor" stroke-width="0.875"/>
<path d="M19.8301 11L12.4366 19.5503C12.147 19.8851 12.0023 20.0526 12 20.194C11.9981 20.3169 12.055 20.4338 12.1542 20.5111C12.2683 20.6 12.4945 20.6 12.9468 20.6H19L18.1699 27L25.5634 18.4497C25.853 18.1149 25.9977 17.9474 26 17.806C26.0019 17.6831 25.945 17.5662 25.8458 17.4889C25.7317 17.4 25.5055 17.4 25.0532 17.4H19L19.8301 11Z" stroke="currentColor" stroke-width="1.7" stroke-linecap="round" stroke-linejoin="round"/>
</svg>