<svg viewBox="0 0 38 38" fill="none" xmlns="http://www.w3.org/2000/svg">
<path d="M20.3096 10.8997V14.2041C20.3096 14.6522 20.3096 14.8762 20.3981 15.0473C20.476 15.1979 20.6003 15.3202 20.7532 15.3969C20.927 15.4841 21.1545 15.4841 21.6096 15.4841H24.9656M16.2471 21.8841L17.8721 23.4841L21.5283 19.8841M20.3096 10.6841H16.0846C14.7194 10.6841 14.0369 10.6841 13.5155 10.9457C13.0568 11.1758 12.6839 11.5429 12.4502 11.9945C12.1846 12.5079 12.1846 13.18 12.1846 14.5241V22.8441C12.1846 24.1882 12.1846 24.8603 12.4502 25.3737C12.6839 25.8252 13.0568 26.1924 13.5155 26.4225C14.0369 26.6841 14.7194 26.6841 16.0846 26.6841H21.2846C22.6497 26.6841 23.3323 26.6841 23.8537 26.4225C24.3123 26.1924 24.6852 25.8252 24.9189 25.3737C25.1846 24.8603 25.1846 24.1882 25.1846 22.8441V15.4841L20.3096 10.6841Z" stroke="currentColor" stroke-width="1.7" stroke-linecap="round" stroke-linejoin="round"/>
</svg>