<svg viewBox="0 0 38 38" fill="none" xmlns="http://www.w3.org/2000/svg">
<path d="M18.6846 9.18408L20.5959 14.1536C20.8638 14.8502 20.9978 15.1985 21.2061 15.4914C21.3907 15.7511 21.6176 15.9779 21.8772 16.1625C22.1702 16.3709 22.5185 16.5048 23.215 16.7727L28.1846 18.6841L23.215 20.5954C22.5185 20.8634 22.1702 20.9973 21.8772 21.2056C21.6176 21.3902 21.3907 21.6171 21.2061 21.8767C20.9978 22.1697 20.8638 22.518 20.5959 23.2146L18.6846 28.1841L16.7732 23.2146C16.5053 22.518 16.3713 22.1697 16.163 21.8767C15.9784 21.6171 15.7516 21.3902 15.4919 21.2056C15.199 20.9973 14.8507 20.8634 14.1541 20.5954L9.18457 18.6841L14.1541 16.7727C14.8507 16.5048 15.199 16.3709 15.4919 16.1625C15.7516 15.9779 15.9784 15.7511 16.163 15.4914C16.3713 15.1985 16.5053 14.8502 16.7732 14.1536L18.6846 9.18408Z" stroke="currentColor" stroke-width="1.7" stroke-linecap="round" stroke-linejoin="round"/>
</svg>