<svg viewBox="0 0 38 38" fill="none" xmlns="http://www.w3.org/2000/svg">
<path d="M28.1846 20.7419V16.6263M13.4406 23.6841H20.0019C21.4916 23.6841 22.2365 23.6841 22.8055 23.4116C23.306 23.1719 23.713 22.7895 23.968 22.3191C24.2579 21.7843 24.2579 21.0842 24.2579 19.6841V17.6841C24.2579 16.284 24.2579 15.5839 23.968 15.0491C23.713 14.5787 23.306 14.1962 22.8055 13.9566C22.2365 13.6841 21.4916 13.6841 20.0019 13.6841H13.4406C11.9508 13.6841 11.206 13.6841 10.637 13.9566C10.1364 14.1962 9.72952 14.5787 9.47449 15.0491C9.18457 15.5839 9.18457 16.284 9.18457 17.6841V19.6841C9.18457 21.0842 9.18457 21.7843 9.47449 22.3191C9.72952 22.7895 10.1364 23.1719 10.637 23.4116C11.206 23.6841 11.9508 23.6841 13.4406 23.6841Z" stroke="currentColor" stroke-width="1.7" stroke-linecap="round" stroke-linejoin="round"/>
</svg>