<svg viewBox="0 0 38 38" fill="none" xmlns="http://www.w3.org/2000/svg">
<path d="M25 13.4C25 14.7255 22.3137 15.8 19 15.8C15.6863 15.8 13 14.7255 13 13.4M25 13.4C25 12.0745 22.3137 11 19 11C15.6863 11 13 12.0745 13 13.4M25 13.4V24.6C25 25.9255 22.3137 27 19 27C15.6863 27 13 25.9255 13 24.6V13.4M25 17.1333C25 18.4588 22.3137 19.5333 19 19.5333C15.6863 19.5333 13 18.4588 13 17.1333M25 20.864C25 22.1895 22.3137 23.264 19 23.264C15.6863 23.264 13 22.1895 13 20.864" stroke="currentColor" stroke-width="1.7" stroke-linecap="round" stroke-linejoin="round"/>
</svg>