<svg viewBox="0 0 38 38" fill="none" xmlns="http://www.w3.org/2000/svg">
<path d="M7.65625 0.4375H30.3438C34.3306 0.4375 37.5625 3.66944 37.5625 7.65625V30.3438C37.5625 34.3306 34.3306 37.5625 30.3438 37.5625H7.65625C3.66944 37.5625 0.4375 34.3306 0.4375 30.3438V7.65625C0.4375 3.66944 3.66944 0.4375 7.65625 0.4375Z" fill="currentColor"/>
<path d="M7.65625 0.4375H30.3438C34.3306 0.4375 37.5625 3.66944 37.5625 7.65625V30.3438C37.5625 34.3306 34.3306 37.5625 30.3438 37.5625H7.65625C3.66944 37.5625 0.4375 34.3306 0.4375 30.3438V7.65625C0.4375 3.66944 3.66944 0.4375 7.65625 0.4375Z" stroke="currentColor" stroke-width="0.875"/>
<path d="M20.6 15.25H22.4698C22.6655 15.25 22.7633 15.25 22.8554 15.2707C22.937 15.2891 23.0151 15.3194 23.0866 15.3605C23.1674 15.4069 23.2365 15.4718 23.3749 15.6015L26.6251 18.6485C26.7635 18.7782 26.8326 18.8431 26.8821 18.9188C26.926 18.9859 26.9583 19.059 26.9779 19.1356C27 19.2219 27 19.3136 27 19.4971V21.625C27 21.9745 27 22.1492 26.9391 22.287C26.8579 22.4708 26.7022 22.6168 26.5061 22.6929C26.3591 22.75 26.1728 22.75 25.8 22.75M21.8 22.75H20.6M20.6 22.75V15.4C20.6 14.5599 20.6 14.1399 20.4256 13.819C20.2722 13.5368 20.0274 13.3073 19.7264 13.1635C19.3841 13 18.9361 13 18.04 13H13.56C12.6639 13 12.2159 13 11.8736 13.1635C11.5726 13.3073 11.3278 13.5368 11.1744 13.819C11 14.1399 11 14.5599 11 15.4V21.25C11 22.0784 11.7163 22.75 12.6 22.75M20.6 22.75H17.4M17.4 22.75C17.4 23.9926 16.3255 25 15 25C13.6745 25 12.6 23.9926 12.6 22.75M17.4 22.75C17.4 21.5074 16.3255 20.5 15 20.5C13.6745 20.5 12.6 21.5074 12.6 22.75M25.8 23.125C25.8 24.1605 24.9046 25 23.8 25C22.6954 25 21.8 24.1605 21.8 23.125C21.8 22.0895 22.6954 21.25 23.8 21.25C24.9046 21.25 25.8 22.0895 25.8 23.125Z" stroke="currentColor" stroke-width="1.7" stroke-linecap="round" stroke-linejoin="round"/>
</svg>