<svg viewBox="0 0 38 38" fill="none" xmlns="http://www.w3.org/2000/svg">
<path d="M27.6846 20.7419V16.6263M13.7166 23.6841H19.9326C21.3439 23.6841 22.0496 23.6841 22.5886 23.4116C23.0628 23.1719 23.4483 22.7895 23.6899 22.3191C23.9646 21.7843 23.9646 21.0842 23.9646 19.6841V17.6841C23.9646 16.284 23.9646 15.5839 23.6899 15.0491C23.4483 14.5787 23.0628 14.1962 22.5886 13.9566C22.0496 13.6841 21.3439 13.6841 19.9326 13.6841H13.7166C12.3052 13.6841 11.5996 13.6841 11.0605 13.9566C10.5863 14.1962 10.2008 14.5787 9.95923 15.0491C9.68457 15.5839 9.68457 16.284 9.68457 17.6841V19.6841C9.68457 21.0842 9.68457 21.7843 9.95923 22.3191C10.2008 22.7895 10.5863 23.1719 11.0605 23.4116C11.5996 23.6841 12.3052 23.6841 13.7166 23.6841Z" stroke="currentColor" stroke-width="1.7" stroke-linecap="round" stroke-linejoin="round"/>
</svg>