<svg viewBox="0 0 38 38" fill="none" xmlns="http://www.w3.org/2000/svg">
<path d="M7.65625 0.4375H30.3438C34.3306 0.4375 37.5625 3.66944 37.5625 7.65625V30.3438C37.5625 34.3306 34.3306 37.5625 30.3438 37.5625H7.65625C3.66944 37.5625 0.4375 34.3306 0.4375 30.3438V7.65625C0.4375 3.66944 3.66944 0.4375 7.65625 0.4375Z" fill="currentColor"/>
<path d="M7.65625 0.4375H30.3438C34.3306 0.4375 37.5625 3.66944 37.5625 7.65625V30.3438C37.5625 34.3306 34.3306 37.5625 30.3438 37.5625H7.65625C3.66944 37.5625 0.4375 34.3306 0.4375 30.3438V7.65625C0.4375 3.66944 3.66944 0.4375 7.65625 0.4375Z" stroke="currentColor" stroke-width="0.875"/>
<path d="M17.05 22.9L12.5 25.5V15.1L17.05 12.5M17.05 22.9L21.6 25.5M17.05 22.9V12.5M21.6 25.5L25.5 22.9V12.5L21.6 15.1M21.6 25.5V15.1M21.6 15.1L17.05 12.5" stroke="currentColor" stroke-width="1.7" stroke-linecap="round" stroke-linejoin="round"/>
</svg>