<svg viewBox="0 0 38 38" fill="none" xmlns="http://www.w3.org/2000/svg">
<path d="M7.65625 0.4375H30.3438C34.3306 0.4375 37.5625 3.66944 37.5625 7.65625V30.3438C37.5625 34.3306 34.3306 37.5625 30.3438 37.5625H7.65625C3.66944 37.5625 0.4375 34.3306 0.4375 30.3438V7.65625C0.4375 3.66944 3.66944 0.4375 7.65625 0.4375Z" fill="currentColor"/>
<path d="M7.65625 0.4375H30.3438C34.3306 0.4375 37.5625 3.66944 37.5625 7.65625V30.3438C37.5625 34.3306 34.3306 37.5625 30.3438 37.5625H7.65625C3.66944 37.5625 0.4375 34.3306 0.4375 30.3438V7.65625C0.4375 3.66944 3.66944 0.4375 7.65625 0.4375Z" stroke="currentColor" stroke-width="0.875"/>
<path d="M22.8889 12L26 14.8M26 14.8L22.8889 17.6M26 14.8H15.7333C14.4265 14.8 13.7731 14.8 13.274 15.0289C12.835 15.2302 12.478 15.5515 12.2543 15.9466C12 16.3958 12 16.9839 12 18.16V18.3M12 23.2H22.2667C23.5735 23.2 24.2269 23.2 24.726 22.9711C25.165 22.7698 25.522 22.4485 25.7457 22.0534C26 21.6042 26 21.0161 26 19.84V19.7M12 23.2L15.1111 26M12 23.2L15.1111 20.4" stroke="currentColor" stroke-width="1.7" stroke-linecap="round" stroke-linejoin="round"/>
</svg>