<svg viewBox="0 0 48 48" fill="none" xmlns="http://www.w3.org/2000/svg">
<path d="M26.375 15.7426V19.4601C26.375 19.9641 26.375 20.2161 26.4772 20.4087C26.5671 20.578 26.7105 20.7157 26.8869 20.802C27.0874 20.9001 27.35 20.9001 27.875 20.9001H31.7474M21.6875 28.1L23.5625 29.9L27.7812 25.85M26.375 15.5H21.5C19.9249 15.5 19.1373 15.5 18.5357 15.7943C18.0064 16.0531 17.5762 16.4662 17.3065 16.9742C17 17.5518 17 18.3079 17 19.82V29.18C17 30.6921 17 31.4482 17.3065 32.0258C17.5762 32.5338 18.0064 32.9469 18.5357 33.2057C19.1373 33.5 19.9249 33.5 21.5 33.5H27.5C29.0751 33.5 29.8627 33.5 30.4643 33.2057C30.9936 32.9469 31.4238 32.5338 31.6935 32.0258C32 31.4482 32 30.6921 32 29.18V20.9L26.375 15.5Z" stroke="currentColor" stroke-width="1.7" stroke-linecap="round" stroke-linejoin="round"/>
</svg>