<svg viewBox="0 0 38 38" fill="none" xmlns="http://www.w3.org/2000/svg">
<path d="M19.5179 17.8841H14.5179M16.1846 21.0841H14.5179M21.1846 14.6841H14.5179M24.5179 17.4841V14.5241C24.5179 13.18 24.5179 12.5079 24.2454 11.9945C24.0057 11.5429 23.6233 11.1758 23.1529 10.9457C22.6181 10.6841 21.918 10.6841 20.5179 10.6841H15.1846C13.7844 10.6841 13.0844 10.6841 12.5496 10.9457C12.0792 11.1758 11.6967 11.5429 11.4571 11.9945C11.1846 12.5079 11.1846 13.18 11.1846 14.5241V22.8441C11.1846 24.1882 11.1846 24.8603 11.4571 25.3737C11.6967 25.8252 12.0792 26.1924 12.5496 26.4225C13.0844 26.6841 13.7844 26.6841 15.1846 26.6841H17.4346M26.1846 26.6841L24.9346 25.4841M25.7679 23.4841C25.7679 25.0305 24.4621 26.2841 22.8512 26.2841C21.2404 26.2841 19.9346 25.0305 19.9346 23.4841C19.9346 21.9377 21.2404 20.6841 22.8512 20.6841C24.4621 20.6841 25.7679 21.9377 25.7679 23.4841Z" stroke="currentColor" stroke-width="1.7" stroke-linecap="round" stroke-linejoin="round"/>
</svg>