<svg viewBox="0 0 38 38" fill="none" xmlns="http://www.w3.org/2000/svg">
<path d="M11.6846 19.6285H24.8176C25.2072 19.6285 25.4021 19.6285 25.5134 19.5369C25.6104 19.4571 25.6723 19.3345 25.6835 19.2001C25.6963 19.0461 25.596 18.8588 25.3956 18.4842L23.6885 15.295C23.6128 15.1537 23.575 15.083 23.5602 15.0076C23.5471 14.9409 23.5471 14.8717 23.5602 14.805C23.575 14.7296 23.6128 14.6589 23.6885 14.5176L25.3956 11.3284C25.5961 10.9538 25.6963 10.7666 25.6835 10.6125C25.6723 10.4781 25.6104 10.3555 25.5134 10.2757C25.4021 10.1841 25.2072 10.1841 24.8176 10.1841H11.6846L11.6846 27.1841" stroke="currentColor" stroke-width="1.7" stroke-linecap="round" stroke-linejoin="round"/>
</svg>