<svg viewBox="0 0 38 38" fill="none" xmlns="http://www.w3.org/2000/svg">
<path d="M20.8846 13.9966H23.4556C23.7246 13.9966 23.8591 13.9966 23.9857 14.0225C24.098 14.0455 24.2053 14.0833 24.3037 14.1347C24.4147 14.1927 24.5098 14.2738 24.7001 14.4359L29.1691 18.2447C29.3593 18.4069 29.4544 18.488 29.5225 18.5826C29.5828 18.6664 29.6272 18.7579 29.6542 18.8536C29.6846 18.9614 29.6846 19.0761 29.6846 19.3054V21.9653C29.6846 22.4022 29.6846 22.6206 29.6008 22.7928C29.4892 23.0226 29.2751 23.2051 29.0055 23.3002C28.8034 23.3716 28.5471 23.3716 28.0346 23.3716M22.5346 23.3716H20.8846M20.8846 23.3716V14.1841C20.8846 13.134 20.8846 12.6089 20.6448 12.2078C20.4339 11.855 20.0973 11.5682 19.6833 11.3884C19.2127 11.1841 18.5967 11.1841 17.3646 11.1841H11.2046C9.97245 11.1841 9.3564 11.1841 8.88579 11.3884C8.47183 11.5682 8.13528 11.855 7.92436 12.2078C7.68457 12.6089 7.68457 13.134 7.68457 14.1841V21.4966C7.68457 22.5321 8.66954 23.3716 9.88457 23.3716M20.8846 23.3716H16.4846M16.4846 23.3716C16.4846 24.9249 15.0071 26.1841 13.1846 26.1841C11.362 26.1841 9.88457 24.9249 9.88457 23.3716M16.4846 23.3716C16.4846 21.8183 15.0071 20.5591 13.1846 20.5591C11.362 20.5591 9.88457 21.8183 9.88457 23.3716M28.0346 23.8403C28.0346 25.1347 26.8034 26.1841 25.2846 26.1841C23.7658 26.1841 22.5346 25.1347 22.5346 23.8403C22.5346 22.5459 23.7658 21.4966 25.2846 21.4966C26.8034 21.4966 28.0346 22.5459 28.0346 23.8403Z" stroke="currentColor" stroke-width="1.7" stroke-linecap="round" stroke-linejoin="round"/>
</svg>