<svg viewBox="0 0 38 38" fill="none" xmlns="http://www.w3.org/2000/svg">
<path d="M7.65625 0.4375H30.3438C34.3306 0.4375 37.5625 3.66944 37.5625 7.65625V30.3438C37.5625 34.3306 34.3306 37.5625 30.3438 37.5625H7.65625C3.66944 37.5625 0.4375 34.3306 0.4375 30.3438V7.65625C0.4375 3.66944 3.66944 0.4375 7.65625 0.4375Z" fill="currentColor"/>
<path d="M7.65625 0.4375H30.3438C34.3306 0.4375 37.5625 3.66944 37.5625 7.65625V30.3438C37.5625 34.3306 34.3306 37.5625 30.3438 37.5625H7.65625C3.66944 37.5625 0.4375 34.3306 0.4375 30.3438V7.65625C0.4375 3.66944 3.66944 0.4375 7.65625 0.4375Z" stroke="currentColor" stroke-width="0.875"/>
<path d="M26.5 20.6804V17.3193M14.86 23.0832H20.04C21.2161 23.0832 21.8042 23.0832 22.2534 22.8606C22.6485 22.6649 22.9698 22.3526 23.1711 21.9684C23.4 21.5317 23.4 20.9599 23.4 19.8165V18.1832C23.4 17.0397 23.4 16.468 23.1711 16.0313C22.9698 15.6471 22.6485 15.3348 22.2534 15.139C21.8042 14.9165 21.2161 14.9165 20.04 14.9165H14.86C13.6839 14.9165 13.0958 14.9165 12.6466 15.139C12.2515 15.3348 11.9302 15.6471 11.7289 16.0313C11.5 16.468 11.5 17.0397 11.5 18.1832V19.8165C11.5 20.9599 11.5 21.5317 11.7289 21.9684C11.9302 22.3526 12.2515 22.6649 12.6466 22.8606C13.0958 23.0832 13.6839 23.0832 14.86 23.0832Z" stroke="currentColor" stroke-width="1.7" stroke-linecap="round" stroke-linejoin="round"/>
</svg>