<svg viewBox="0 0 38 38" fill="none" xmlns="http://www.w3.org/2000/svg">
<path d="M18.65 14.1H18.9541C21.0872 14.1 22.1537 14.1 22.5585 14.4831C22.9085 14.8143 23.0636 15.3021 22.9691 15.7745C22.8598 16.3211 21.9891 16.937 20.2476 18.1688L17.4024 20.1812C15.6609 21.413 14.7902 22.0289 14.6809 22.5755C14.5864 23.0479 14.7415 23.5357 15.0915 23.8669C15.4963 24.25 16.5629 24.25 18.6959 24.25H19.35M16.2 14.1C16.2 15.2598 15.2598 16.2 14.1 16.2C12.9402 16.2 12 15.2598 12 14.1C12 12.9402 12.9402 12 14.1 12C15.2598 12 16.2 12.9402 16.2 14.1ZM26 23.9C26 25.0598 25.0598 26 23.9 26C22.7402 26 21.8 25.0598 21.8 23.9C21.8 22.7402 22.7402 21.8 23.9 21.8C25.0598 21.8 26 22.7402 26 23.9Z" stroke="currentColor" stroke-width="1.7" stroke-linecap="round" stroke-linejoin="round"/>
</svg>