<svg viewBox="0 0 18 18" fill="none" xmlns="http://www.w3.org/2000/svg">
<path d="M9.77778 8.25H5.11111M6.66667 11.25H5.11111M11.3333 5.25H5.11111M14.4444 7.875V5.1C14.4444 3.83988 14.4444 3.20982 14.1901 2.72852C13.9664 2.30516 13.6095 1.96095 13.1704 1.74524C12.6713 1.5 12.0179 1.5 10.7111 1.5H5.73333C4.42654 1.5 3.77315 1.5 3.27402 1.74524C2.83498 1.96095 2.47802 2.30516 2.25432 2.72852C2 3.20982 2 3.83988 2 5.1V12.9C2 14.1601 2 14.7902 2.25432 15.2715C2.47802 15.6948 2.83498 16.039 3.27402 16.2548C3.77315 16.5 4.42654 16.5 5.73333 16.5H7.83333M16 16.5L14.8333 15.375M15.6111 13.5C15.6111 14.9497 14.3923 16.125 12.8889 16.125C11.3854 16.125 10.1667 14.9497 10.1667 13.5C10.1667 12.0503 11.3854 10.875 12.8889 10.875C14.3923 10.875 15.6111 12.0503 15.6111 13.5Z" stroke="currentColor" stroke-width="1.7" stroke-linecap="round" stroke-linejoin="round"/>
</svg>