<svg viewBox="0 0 18 18" fill="none" xmlns="http://www.w3.org/2000/svg">
<path d="M6.75 8.65139L8.25 10.1514L11.625 6.77639M15 9.02639C15 12.7077 10.9845 15.3852 9.52349 16.2375C9.35745 16.3344 9.27443 16.3829 9.15726 16.408C9.06633 16.4275 8.93367 16.4275 8.84274 16.408C8.72557 16.3829 8.64255 16.3344 8.47651 16.2375C7.01547 15.3852 3 12.7077 3 9.02639V5.43959C3 4.83996 3 4.54014 3.09807 4.28242C3.18471 4.05475 3.32549 3.8516 3.50824 3.69054C3.71512 3.50822 3.99585 3.40295 4.5573 3.1924L8.57865 1.6844C8.73457 1.62593 8.81253 1.59669 8.89274 1.5851C8.96388 1.57482 9.03612 1.57482 9.10726 1.5851C9.18747 1.59669 9.26543 1.62593 9.42135 1.6844L13.4427 3.1924C14.0042 3.40295 14.2849 3.50822 14.4918 3.69054C14.6745 3.8516 14.8153 4.05475 14.9019 4.28242C15 4.54014 15 4.83996 15 5.43959V9.02639Z" stroke="currentColor" stroke-width="1.7" stroke-linecap="round" stroke-linejoin="round"/>
</svg>