<svg viewBox="0 0 20 20" fill="none" xmlns="http://www.w3.org/2000/svg">
<path d="M5 4.13341C5 3.42855 5 3.07613 5.14743 2.88109C5.27583 2.71118 5.47183 2.60405 5.68487 2.58737C5.92924 2.56821 6.22436 2.76176 6.81461 3.14885L15.7559 9.01543C16.2456 9.33666 16.4905 9.49727 16.5754 9.70088C16.6497 9.87872 16.6497 10.0881 16.5754 10.2659C16.4905 10.4696 16.2456 10.6302 15.7559 10.9514L6.81461 16.818C6.22436 17.2051 5.92924 17.3986 5.68487 17.3794C5.47183 17.3628 5.27583 17.2556 5.14743 17.0857C5 16.8907 5 16.5382 5 15.8334V4.13341Z" stroke="currentColor" stroke-width="1.66667" stroke-linecap="round" stroke-linejoin="round"/>
</svg>
