<svg viewBox="0 0 20 20" fill="none" xmlns="http://www.w3.org/2000/svg">
<path d="M10 12.5C11.3807 12.5 12.5 11.3807 12.5 10C12.5 8.61929 11.3807 7.5 10 7.5C8.61929 7.5 7.5 8.61929 7.5 10C7.5 11.3807 8.61929 12.5 10 12.5Z" stroke="currentColor" stroke-width="1.5" stroke-linecap="round" stroke-linejoin="round"/>
<path d="M15.1667 12.5C15.0737 12.7106 15.046 12.9443 15.087 13.1708C15.1281 13.3973 15.2361 13.6064 15.3975 13.7708L15.4392 13.8125C15.569 13.9422 15.672 14.0962 15.7422 14.2657C15.8125 14.4353 15.8487 14.617 15.8487 14.8004C15.8487 14.9839 15.8125 15.1656 15.7422 15.3351C15.672 15.5047 15.569 15.6587 15.4392 15.7883C15.3095 15.9181 15.1555 16.0211 14.986 16.0914C14.8164 16.1616 14.6347 16.1978 14.4513 16.1978C14.2678 16.1978 14.0861 16.1616 13.9166 16.0914C13.747 16.0211 13.593 15.9181 13.4633 15.7883L13.4217 15.7467C13.2572 15.5853 13.0482 15.4773 12.8216 15.4362C12.5951 15.3952 12.3615 15.4229 12.1508 15.5158C11.9442 15.6044 11.768 15.7517 11.6442 15.9396C11.5204 16.1275 11.4544 16.3478 11.4542 16.5733V16.6667C11.4542 17.0382 11.3066 17.3944 11.0441 17.6569C10.7815 17.9195 10.4253 18.0671 10.0538 18.0671C9.68234 18.0671 9.32615 17.9195 9.06361 17.6569C8.80106 17.3944 8.65354 17.0382 8.65354 16.6667V16.6175C8.6481 16.3856 8.5731 16.161 8.43801 15.9726C8.30292 15.7842 8.1141 15.6406 7.89604 15.5608C7.68538 15.4679 7.45176 15.4402 7.22523 15.4812C6.9987 15.5222 6.78966 15.6302 6.6252 15.7917L6.58354 15.8333C6.45383 15.9631 6.29983 16.0661 6.13029 16.1364C5.96075 16.2066 5.77905 16.2428 5.59562 16.2428C5.41219 16.2428 5.23049 16.2066 5.06095 16.1364C4.89141 16.0661 4.73741 15.9631 4.6077 15.8333C4.47795 15.7036 4.37498 15.5496 4.30473 15.3801C4.23449 15.2105 4.19832 15.0288 4.19832 14.8454C4.19832 14.6619 4.23449 14.4803 4.30473 14.3107C4.37498 14.1411 4.47795 13.9871 4.6077 13.8575L4.64937 13.8158C4.81081 13.6514 4.9188 13.4423 4.95982 13.2158C5.00084 12.9893 4.97314 12.7557 4.8802 12.545C4.79162 12.3384 4.64434 12.1622 4.4564 12.0384C4.26846 11.9146 4.04816 11.8486 3.82271 11.8483H3.72937C3.35791 11.8483 3.00172 11.7008 2.73917 11.4383C2.47663 11.1757 2.32911 10.8195 2.32911 10.4481C2.32911 10.0766 2.47663 9.72042 2.73917 9.45788C3.00172 9.19533 3.35791 9.04781 3.72937 9.04781H3.77854C4.01044 9.04237 4.23508 8.96737 4.42346 8.83228C4.61185 8.69719 4.75543 8.50837 4.83521 8.29031C4.92815 8.07965 4.95584 7.84603 4.91482 7.6195C4.8738 7.39297 4.76581 7.18393 4.60437 7.01947L4.5627 6.97781C4.43295 6.84809 4.32998 6.69409 4.25974 6.52455C4.18949 6.35501 4.15332 6.17331 4.15332 5.98988C4.15332 5.80645 4.18949 5.62475 4.25974 5.45521C4.32998 5.28567 4.43295 5.13167 4.5627 5.00196C4.69241 4.87221 4.84641 4.76924 5.01595 4.69899C5.18549 4.62875 5.36719 4.59258 5.55062 4.59258C5.73405 4.59258 5.91575 4.62875 6.08529 4.69899C6.25483 4.76924 6.40883 4.87221 6.53854 5.00196L6.5802 5.04363C6.74466 5.20507 6.9537 5.31306 7.18023 5.35408C7.40676 5.3951 7.64038 5.3674 7.85104 5.27447H7.89271C8.09929 5.18589 8.27552 5.0386 8.39933 4.85066C8.52314 4.66272 8.58913 4.44242 8.58937 4.21697V4.12363C8.58937 3.75217 8.73689 3.39598 8.99944 3.13344C9.26198 2.87089 9.61817 2.72337 9.98962 2.72337C10.3611 2.72337 10.7173 2.87089 10.9798 3.13344C11.2424 3.39598 11.3899 3.75217 11.3899 4.12363V4.1728C11.3901 4.39825 11.4561 4.61855 11.5799 4.80649C11.7037 4.99443 11.88 5.14172 12.0865 5.2303C12.2972 5.32323 12.5308 5.35093 12.7573 5.30991C12.9839 5.26889 13.1929 5.1609 13.3574 4.99947L13.399 4.9578C13.5287 4.82805 13.6827 4.72507 13.8523 4.65483C14.0218 4.58458 14.2035 4.54842 14.387 4.54842C14.5704 4.54842 14.7521 4.58458 14.9216 4.65483C15.0912 4.72507 15.2452 4.82805 15.3749 4.9578C15.5046 5.08751 15.6076 5.24151 15.6779 5.41105C15.7481 5.58059 15.7843 5.76229 15.7843 5.94572C15.7843 6.12915 15.7481 6.31085 15.6779 6.48039C15.6076 6.64993 15.5046 6.80393 15.3749 6.93364L15.3332 6.97531C15.1718 7.13977 15.0638 7.34881 15.0228 7.57534C14.9817 7.80187 15.0094 8.03549 15.1024 8.24614V8.28781C15.191 8.49439 15.3382 8.67062 15.5262 8.79443C15.7141 8.91824 15.9344 8.98423 16.1599 8.98447H16.2532C16.6247 8.98447 16.9809 9.13199 17.2434 9.39454C17.506 9.65708 17.6535 10.0133 17.6535 10.3847C17.6535 10.7562 17.506 11.1124 17.2434 11.3749C16.9809 11.6375 16.6247 11.785 16.2532 11.785H16.2041C15.9786 11.7853 15.7583 11.8513 15.5704 11.9751C15.3824 12.0989 15.2352 12.2751 15.1466 12.4817L15.1667 12.5Z" stroke="currentColor" stroke-width="1.5" stroke-linecap="round" stroke-linejoin="round"/>
</svg>
